<svg xmlns="http://www.w3.org/2000/svg" viewBox="0 0 280.89 54.15"><defs><style>.cls-1{fill:#231f20;}</style></defs><title>Asset 1</title><g id="Layer_2" data-name="Layer 2"><g id="OBJECTS"><path class="cls-1" d="M141.81,23.31c-4.05-11.16-14.81-15.9-26-16.73-14.64-1.1-28.74,3.82-41.74,10.11-8.35,4-16.39,8.7-24.54,13.11-1.7.92-.19,3.51,1.51,2.59,13.12-7.09,26-15,40.31-19.57,11-3.52,23.87-5.2,34.93-1.05a20.74,20.74,0,0,1,12.63,12.34c.65,1.8,3.55,1,2.89-.8Z"/><path class="cls-1" d="M141.81,24.11c3.93-10.83,15.34-14.43,25.92-14.67,14.1-.31,27.42,4.82,39.84,11,7.49,3.75,14.75,7.93,22.11,11.91,1.7.92,3.21-1.67,1.51-2.59C217,22.11,202.91,13.46,187.23,9c-11.45-3.22-25.1-4.3-36.17.92a23.3,23.3,0,0,0-12.15,13.36c-.66,1.82,2.24,2.6,2.89.8Z"/><path class="cls-1" d="M115.68,45.72a9.38,9.38,0,0,0,9.13-10.59,11.25,11.25,0,0,0-11.4-9.78c-11.75.3-17.19,14.79-9.82,23.42,6.61,7.75,20,6.53,26.92-.11,8-7.65,7.83-21.52-1.08-28.35-7.86-6-19.18-5.53-28.41-3.91-13.57,2.39-25.8,9.15-37.9,15.42S37.59,45.24,23.45,43.19A24.69,24.69,0,0,1,7.73,34.63c-4-4.91-6.26-12-3.93-18.13C7.7,6.21,23.18,3.74,30.16,12.26c3.78,4.62,3.78,11.94-.81,16C24.12,32.92,14.53,31,14.2,23.12a6.31,6.31,0,0,1,6.21-6.57c1.92-.08,1.93-3.08,0-3a9.38,9.38,0,0,0-9.13,10.59,11.25,11.25,0,0,0,11.4,9.78c11.82-.3,16.84-14.42,10-23.23C26.83,3.08,14.86,2.14,7.22,7.56c-10.43,7.39-8.57,21.73-.68,30.25,8.2,8.87,21,10,32.18,7.48C53.31,42,66.24,33.12,79.64,26.81c10.72-5,22.38-9,34.39-8.35,4.92.25,10.22,1.37,14.08,4.62a15.53,15.53,0,0,1,4.79,15.56,16.27,16.27,0,0,1-12.57,12c-4.83,1.08-10.56.29-14.11-3.42-4.22-4.41-4.08-12.16.52-16.24,5.23-4.64,14.82-2.77,15.14,5.15a6.31,6.31,0,0,1-6.21,6.57c-1.92.08-1.93,3.08,0,3Z"/><path class="cls-1" d="M165,42.72c-8.58-.37-7.39-12-.34-14.05s13.19,4.54,12.81,11.23c-.71,12.49-17.2,14-24.93,6.87a16.49,16.49,0,0,1-4.28-17.53c1.83-5,6.09-8.16,11.05-9.61,9.71-2.84,20.84-.78,30.2,2.43,15.13,5.19,28.5,14.3,43.29,20.3,10.73,4.36,23.81,6.34,34.48.72,10.08-5.31,17.26-18.63,11.54-29.54-4.75-9.05-17-11.87-25.75-7.17-9,4.86-11.6,18.33-2.83,24.86,4.53,3.37,11.15,3.74,15.5-.14,4-3.6,5.15-10.14,1.46-14.38a9.49,9.49,0,0,0-6.94-3.16c-1.93-.08-1.93,2.92,0,3,8.58.37,7.39,12,.34,14.05s-13.2-4.49-12.81-11.16c.66-11.2,14.31-15.22,23-10.06,5.75,3.41,8,10,6.58,16.39a22.78,22.78,0,0,1-11.88,14.87c-11.86,6.06-25.93,1.72-37.2-3.49-13.78-6.37-26.75-14.86-41.44-19.08-9.28-2.67-20.28-4.19-29.6-.91C147,20.77,141.62,31.66,145.75,42c4,9.88,16.14,14.87,26,10.69s12.11-18.1,3.34-24.63c-4.53-3.37-11.15-3.74-15.5.14-4,3.6-5.15,10.14-1.46,14.38A9.49,9.49,0,0,0,165,45.72c1.93.08,1.93-2.92,0-3Z"/><circle class="cls-1" cx="140.36" cy="2.8" r="2.8" transform="translate(39.13 100.07) rotate(-45)"/></g></g></svg>