<?xml version="1.0" standalone="no"?>
<!DOCTYPE svg PUBLIC "-//W3C//DTD SVG 20010904//EN"
 "http://www.w3.org/TR/2001/REC-SVG-20010904/DTD/svg10.dtd">
<svg version="1.0" xmlns="http://www.w3.org/2000/svg"
 width="180.000000pt" height="180.000000pt" viewBox="0 0 180.000000 180.000000"
 preserveAspectRatio="xMidYMid meet">
<metadata>
Created by potrace 1.11, written by Peter Selinger 2001-2013
</metadata>
<g transform="translate(0.000000,180.000000) scale(0.100000,-0.100000)"
fill="#000000" stroke="none">
<path d="M200 932 c0 -416 -3 -541 -12 -552 -11 -12 -10 -12 3 -2 10 7 45 12
85 11 174 -3 168 -4 193 46 12 25 27 45 33 45 6 0 8 3 5 6 -5 6 37 90 53 104
3 3 6 10 7 15 1 6 12 29 25 53 l25 42 32 -45 c18 -25 29 -45 24 -45 -4 0 -3
-4 3 -8 13 -9 86 -122 78 -122 -2 0 4 -10 16 -22 11 -12 20 -27 20 -34 0 -22
32 -38 72 -35 30 1 38 -1 32 -11 -5 -10 -4 -11 7 0 17 16 42 16 33 -1 -6 -9
-4 -9 7 1 7 6 36 12 65 12 49 0 53 2 66 30 7 17 16 30 20 30 5 0 8 6 8 14 0 8
6 21 13 28 6 7 21 29 31 48 11 19 22 37 25 40 4 3 15 22 26 43 11 20 23 37 28
37 4 0 6 4 2 9 -3 6 1 13 9 18 8 4 15 11 15 16 2 23 23 -2 82 -101 37 -61 65
-113 61 -116 -3 -3 0 -6 7 -6 6 0 22 -21 34 -47 l22 -48 90 2 c50 1 96 2 103
2 9 1 12 116 12 541 l0 540 -104 0 -104 0 -12 -30 c-7 -16 -16 -30 -21 -30 -5
0 -8 -6 -6 -12 1 -7 -4 -12 -11 -10 -8 1 -11 -2 -7 -8 5 -9 -33 -79 -63 -115
-4 -5 -9 -12 -9 -15 -7 -25 -17 -39 -24 -34 -5 3 -6 -2 -3 -10 4 -9 -1 -18
-10 -22 -9 -3 -14 -10 -11 -14 3 -4 -2 -13 -10 -20 -12 -10 -15 -9 -15 4 0 9
-4 16 -10 16 -5 0 -10 6 -10 14 0 7 -7 19 -15 26 -8 7 -13 16 -10 20 3 5 1 10
-3 12 -8 2 -71 97 -138 206 -14 21 -21 22 -134 22 l-119 0 -17 -32 c-9 -18
-20 -35 -23 -38 -4 -3 -18 -27 -31 -55 -14 -27 -29 -53 -35 -57 -5 -4 -10 -13
-10 -20 -1 -7 -7 -12 -14 -10 -7 1 -10 -2 -7 -7 8 -12 -14 -61 -26 -61 -5 0
-6 -4 -3 -10 3 -5 1 -10 -5 -10 -6 0 -8 -4 -5 -10 3 -5 1 -10 -4 -10 -6 0 -11
-8 -11 -17 0 -11 -8 -6 -25 17 -14 19 -25 39 -25 46 0 7 -4 14 -8 16 -5 2 -42
59 -84 128 l-76 125 -101 3 -101 3 0 -539z m770 274 c0 -5 29 -54 77 -131 7
-11 19 -32 28 -47 l15 -27 -152 1 c-83 0 -146 3 -139 7 7 5 12 11 12 15 -3 20
0 26 11 20 6 -4 8 -3 5 3 -8 12 32 93 46 93 6 0 8 3 4 6 -3 3 4 23 17 43 12
20 26 44 29 55 7 17 9 16 27 -7 11 -14 20 -28 20 -31z m-517 -236 l40 -65 -26
-45 c-15 -25 -31 -44 -36 -43 -6 2 -8 -4 -5 -12 4 -8 1 -15 -6 -15 -6 0 -9 -4
-6 -8 2 -4 1 -14 -5 -22 -6 -10 -9 5 -9 46 0 34 5 66 13 73 10 11 10 13 0 7
-10 -6 -13 14 -12 86 0 51 3 86 6 78 4 -8 24 -44 46 -80z m1005 35 c1 -37 -1
-43 -16 -39 -15 5 -15 5 1 -6 13 -9 17 -25 16 -78 0 -37 -3 -61 -6 -55 -2 7
-4 15 -4 18 1 3 -7 14 -16 24 -40 44 -44 52 -37 74 4 12 17 35 30 50 13 16 24
35 24 43 0 8 2 14 4 14 2 0 4 -20 4 -45z m-379 -171 c-14 -17 -23 -18 -13 -2
4 7 3 8 -4 4 -6 -4 -9 -13 -6 -20 3 -7 -7 -27 -21 -44 -14 -17 -26 -32 -25
-34 5 -13 -15 -38 -28 -33 -12 4 -12 3 -3 -9 9 -11 8 -17 -4 -30 -9 -9 -13
-16 -9 -16 3 0 1 -7 -6 -15 -7 -8 -16 -12 -21 -9 -5 3 -6 -3 -2 -13 12 -32
-29 10 -52 54 -11 21 -22 40 -25 43 -8 7 -80 130 -80 136 0 3 70 4 155 3 130
-1 153 -4 144 -15z"/>
<path d="M1427 899 c7 -7 15 -10 18 -7 3 3 -2 9 -12 12 -14 6 -15 5 -6 -5z"/>
<path d="M816 821 c-3 -5 2 -15 12 -22 15 -12 16 -12 5 2 -7 9 -10 19 -6 22 3
4 4 7 0 7 -3 0 -8 -4 -11 -9z"/>
<path d="M999 813 c-13 -16 -12 -17 4 -4 9 7 17 15 17 17 0 8 -8 3 -21 -13z"/>
<path d="M1459 353 c-13 -16 -12 -17 4 -4 16 13 21 21 13 21 -2 0 -10 -8 -17
-17z"/>
</g>
</svg>
