<svg xmlns="http://www.w3.org/2000/svg" viewBox="0 0 12.01 12"><defs><style>.cls-1{fill:#7d7160;}</style></defs><title>Asset 7</title><g id="Layer_2" data-name="Layer 2"><g id="Layer_1-2" data-name="Layer 1"><path class="cls-1" d="M9.75,8.25H9a1.5,1.5,0,0,1-1.5-1.5V6.27a3.79,3.79,0,0,0,.72-1.35c0-.08.1-.12.15-.18A.93.93,0,0,0,8.5,3.62c0-.05-.08-.1-.08-.16,0-.44,0-.88,0-1.32A2.2,2.2,0,0,0,7.88.66,2.09,2.09,0,0,0,6.74.07a3.78,3.78,0,0,0-1.63,0A2,2,0,0,0,3.95.9a2.27,2.27,0,0,0-.36,1.19c0,.45,0,.9,0,1.35,0,.09-.07.15-.1.23A.93.93,0,0,0,3.7,4.79.44.44,0,0,1,3.83,5,3.63,3.63,0,0,0,4.5,6.25v.5A1.5,1.5,0,0,1,3,8.25H2.25A4,4,0,0,0,0,10.5v.75A.75.75,0,0,0,.75,12h10.5a.75.75,0,0,0,.75-.75V10.5A4,4,0,0,0,9.75,8.25Z"/></g></g></svg>