<svg xmlns="http://www.w3.org/2000/svg" viewBox="0 0 16.11 15.93"><defs><style>.cls-1{fill:#fff;}</style></defs><title>home-a</title><g id="Layer_2" data-name="Layer 2"><g id="Layer_1-2" data-name="Layer 1"><path class="cls-1" d="M3.05,15.93h10a.94.94,0,0,0,1-1V7.43l.3.3a1.85,1.85,0,0,0,.7.2,1.14,1.14,0,0,0,.8-.3,1,1,0,0,0-.1-1.4l-7-6a1.05,1.05,0,0,0-1.3,0L4.05,3V1.93a.94.94,0,0,0-1-1,.94.94,0,0,0-1,1v2.8L.35,6.13a1,1,0,0,0-.1,1.4,1,1,0,0,0,1.4.1l.4-.2v7.5A.94.94,0,0,0,3.05,15.93Zm1-10.3,4-3.4,4,3.5v8.2h-2v-3a.94.94,0,0,0-1-1h-2a.94.94,0,0,0-1,1v3h-2Z"/><rect class="cls-1" x="6.05" y="5.93" width="4" height="2"/></g></g></svg>