<svg xmlns="http://www.w3.org/2000/svg" viewBox="0 0 19.88 15.62"><defs><style>.cls-1{fill:#fff;}</style></defs><title>Asset 6</title><g id="Layer_2" data-name="Layer 2"><g id="Layer_1-2" data-name="Layer 1"><path class="cls-1" d="M11.73,10.6a7,7,0,0,0,2.85-2.07,4.42,4.42,0,0,0,0-5.7A7,7,0,0,0,11.73.76,10,10,0,0,0,7.81,0,10,10,0,0,0,3.89.76,7,7,0,0,0,1,2.83,4.48,4.48,0,0,0,0,5.68,4.36,4.36,0,0,0,.79,8.17a6.48,6.48,0,0,0,2.16,2q-.11.27-.23.49a2.81,2.81,0,0,1-.28.43l-.25.32q-.09.12-.29.33L1.65,12l0,.05-.05.06,0,.06,0,.06,0,.06a.23.23,0,0,0,0,.07.43.43,0,0,0,0,.07.23.23,0,0,0,0,.07.37.37,0,0,0,.13.23.35.35,0,0,0,.23.09h0a9.3,9.3,0,0,0,1-.18,9.33,9.33,0,0,0,3.08-1.42,11.14,11.14,0,0,0,2,.18A10,10,0,0,0,11.73,10.6ZM5.53,9.67,5,10q-.31.21-.69.43l.39-.93L3.66,8.9A5.1,5.1,0,0,1,2,7.43a3,3,0,0,1-.59-1.75,3.15,3.15,0,0,1,.87-2.12A6,6,0,0,1,4.64,2a8.64,8.64,0,0,1,3.17-.58A8.64,8.64,0,0,1,11,2a6,6,0,0,1,2.35,1.56,3.15,3.15,0,0,1,.87,2.12,3.15,3.15,0,0,1-.87,2.12A5.94,5.94,0,0,1,11,9.36a8.64,8.64,0,0,1-3.17.58,9.61,9.61,0,0,1-1.7-.16Z"/><path class="cls-1" d="M19.09,11a4.33,4.33,0,0,0,0-5,6.58,6.58,0,0,0-2.26-2,5.71,5.71,0,0,1-.49,4.5,7.43,7.43,0,0,1-2.13,2.35,9.82,9.82,0,0,1-2.93,1.43,11.72,11.72,0,0,1-3.43.5q-.33,0-1,0a9.32,9.32,0,0,0,5.24,1.46A11.15,11.15,0,0,0,14,14a8.86,8.86,0,0,0,4,1.6.33.33,0,0,0,.24-.08.41.41,0,0,0,.14-.24s0-.07,0-.07,0,0,0-.07l0-.07,0-.06,0-.06,0-.06,0-.06,0,0L18,14.53q-.2-.21-.29-.33l-.25-.32a2.81,2.81,0,0,1-.28-.43q-.12-.22-.23-.49A6.51,6.51,0,0,0,19.09,11Z"/></g></g></svg>